<?xml version="1.0" encoding="UTF-8" standalone="no"?>
<!DOCTYPE svg PUBLIC "-//W3C//DTD SVG 1.1//EN" "http://www.w3.org/Graphics/SVG/1.1/DTD/svg11.dtd">
<svg width="100%" height="100%" viewBox="0 0 191 40" version="1.1" xmlns="http://www.w3.org/2000/svg" xmlns:xlink="http://www.w3.org/1999/xlink" xml:space="preserve" xmlns:serif="http://www.serif.com/" style="fill-rule:evenodd;clip-rule:evenodd;stroke-linejoin:round;stroke-miterlimit:2;">
    <g transform="matrix(0.96375,0,0,0.96375,-29.8892,5.71867)">
        <path d="M82.578,4.865C84.074,4.865 85.333,5.368 86.356,6.376C87.378,7.383 87.889,8.62 87.889,10.087C87.889,11.553 87.378,12.791 86.356,13.798C85.333,14.805 84.074,15.309 82.578,15.309L79.845,15.309L79.845,20.42L76.778,20.42L76.778,4.865L82.578,4.865ZM82.578,12.442C83.23,12.442 83.77,12.216 84.2,11.765C84.63,11.313 84.845,10.753 84.845,10.087C84.845,9.405 84.63,8.842 84.2,8.398C83.77,7.953 83.23,7.731 82.578,7.731L79.845,7.731L79.845,12.442L82.578,12.442Z" style="fill:rgb(15,23,42);fill-rule:nonzero;"/>
        <path d="M92.378,11.22C92.645,10.509 93.085,9.976 93.7,9.62C94.315,9.265 95,9.087 95.756,9.087L95.756,12.287C94.882,12.183 94.1,12.361 93.411,12.82C92.722,13.279 92.378,14.042 92.378,15.109L92.378,20.42L89.511,20.42L89.511,9.309L92.378,9.309L92.378,11.22Z" style="fill:rgb(15,23,42);fill-rule:nonzero;"/>
        <path d="M106.467,19.031C105.326,20.165 103.933,20.731 102.289,20.731C100.645,20.731 99.256,20.165 98.122,19.031C96.989,17.898 96.422,16.509 96.422,14.865C96.422,13.22 96.989,11.831 98.122,10.698C99.256,9.565 100.645,8.998 102.289,8.998C103.933,8.998 105.326,9.565 106.467,10.698C107.607,11.831 108.178,13.22 108.178,14.865C108.178,16.509 107.607,17.898 106.467,19.031ZM100.145,17.065C100.715,17.642 101.43,17.931 102.289,17.931C103.148,17.931 103.867,17.642 104.445,17.065C105.022,16.487 105.311,15.753 105.311,14.865C105.311,13.976 105.022,13.242 104.445,12.665C103.867,12.087 103.148,11.798 102.289,11.798C101.43,11.798 100.715,12.087 100.145,12.665C99.574,13.242 99.289,13.976 99.289,14.865C99.289,15.753 99.574,16.487 100.145,17.065Z" style="fill:rgb(15,23,42);fill-rule:nonzero;"/>
        <path d="M111.689,7.976C111.2,7.976 110.782,7.802 110.433,7.453C110.085,7.105 109.911,6.694 109.911,6.22C109.911,5.746 110.085,5.331 110.433,4.976C110.782,4.62 111.2,4.442 111.689,4.442C112.163,4.442 112.574,4.62 112.922,4.976C113.27,5.331 113.445,5.746 113.445,6.22C113.445,6.694 113.27,7.105 112.922,7.453C112.574,7.802 112.163,7.976 111.689,7.976ZM110.245,20.642L110.245,9.309L113.111,9.309L113.111,20.642C113.111,22.272 112.715,23.461 111.922,24.209C111.13,24.957 109.911,25.279 108.267,25.176L108.267,22.42C108.948,22.465 109.448,22.346 109.767,22.065C110.085,21.783 110.245,21.309 110.245,20.642Z" style="fill:rgb(15,23,42);fill-rule:nonzero;"/>
        <path d="M118.156,16.042C118.541,17.435 119.585,18.131 121.289,18.131C122.385,18.131 123.215,17.761 123.778,17.02L126.089,18.353C124.993,19.939 123.378,20.731 121.245,20.731C119.407,20.731 117.933,20.176 116.822,19.065C115.711,17.953 115.156,16.553 115.156,14.865C115.156,13.191 115.704,11.794 116.8,10.676C117.896,9.557 119.304,8.998 121.022,8.998C122.652,8.998 123.996,9.561 125.056,10.687C126.115,11.813 126.645,13.205 126.645,14.865C126.645,15.235 126.607,15.628 126.533,16.042L118.156,16.042ZM118.111,13.82L123.778,13.82C123.615,13.065 123.278,12.502 122.767,12.131C122.256,11.761 121.674,11.576 121.022,11.576C120.252,11.576 119.615,11.772 119.111,12.165C118.607,12.557 118.274,13.109 118.111,13.82Z" style="fill:rgb(15,23,42);fill-rule:nonzero;"/>
        <path d="M133.845,20.731C132.17,20.731 130.774,20.168 129.656,19.042C128.537,17.916 127.978,16.524 127.978,14.865C127.978,13.205 128.537,11.813 129.656,10.687C130.774,9.561 132.17,8.998 133.845,8.998C134.926,8.998 135.911,9.257 136.8,9.776C137.689,10.294 138.363,10.991 138.822,11.865L136.356,13.309C136.133,12.85 135.796,12.487 135.345,12.22C134.893,11.953 134.385,11.82 133.822,11.82C132.963,11.82 132.252,12.105 131.689,12.676C131.126,13.246 130.845,13.976 130.845,14.865C130.845,15.739 131.126,16.461 131.689,17.031C132.252,17.602 132.963,17.887 133.822,17.887C134.4,17.887 134.915,17.757 135.367,17.498C135.819,17.239 136.156,16.879 136.378,16.42L138.867,17.842C138.378,18.716 137.689,19.416 136.8,19.942C135.911,20.468 134.926,20.731 133.845,20.731Z" style="fill:rgb(15,23,42);fill-rule:nonzero;"/>
        <path d="M146.733,12.065L144.222,12.065L144.222,16.687C144.222,17.072 144.319,17.353 144.511,17.531C144.704,17.709 144.985,17.809 145.356,17.831C145.726,17.853 146.185,17.85 146.733,17.82L146.733,20.42C144.763,20.642 143.374,20.457 142.567,19.865C141.759,19.272 141.356,18.213 141.356,16.687L141.356,12.065L139.422,12.065L139.422,9.309L141.356,9.309L141.356,7.065L144.222,6.198L144.222,9.309L146.733,9.309L146.733,12.065Z" style="fill:rgb(15,23,42);fill-rule:nonzero;"/>
        <path d="M163.911,7.798L157.689,7.798L157.689,11.487L163.733,11.487L163.733,14.42L157.689,14.42L157.689,20.42L154.622,20.42L154.622,4.865L163.911,4.865L163.911,7.798Z" style="fill:rgb(15,23,42);fill-rule:nonzero;"/>
        <path d="M168.445,16.042C168.83,17.435 169.874,18.131 171.578,18.131C172.674,18.131 173.504,17.761 174.067,17.02L176.378,18.353C175.282,19.939 173.667,20.731 171.533,20.731C169.696,20.731 168.222,20.176 167.111,19.065C166,17.953 165.445,16.553 165.445,14.865C165.445,13.191 165.993,11.794 167.089,10.676C168.185,9.557 169.593,8.998 171.311,8.998C172.941,8.998 174.285,9.561 175.345,10.687C176.404,11.813 176.933,13.205 176.933,14.865C176.933,15.235 176.896,15.628 176.822,16.042L168.445,16.042ZM168.4,13.82L174.067,13.82C173.904,13.065 173.567,12.502 173.056,12.131C172.545,11.761 171.963,11.576 171.311,11.576C170.541,11.576 169.904,11.772 169.4,12.165C168.896,12.557 168.563,13.109 168.4,13.82Z" style="fill:rgb(15,23,42);fill-rule:nonzero;"/>
        <path d="M181.8,11.22C182.067,10.509 182.507,9.976 183.122,9.62C183.737,9.265 184.422,9.087 185.178,9.087L185.178,12.287C184.304,12.183 183.522,12.361 182.833,12.82C182.145,13.279 181.8,14.042 181.8,15.109L181.8,20.42L178.933,20.42L178.933,9.309L181.8,9.309L181.8,11.22Z" style="fill:rgb(15,23,42);fill-rule:nonzero;"/>
        <path d="M199.133,8.998C200.407,8.998 201.426,9.413 202.189,10.242C202.952,11.072 203.333,12.183 203.333,13.576L203.333,20.42L200.467,20.42L200.467,13.776C200.467,13.109 200.304,12.591 199.978,12.22C199.652,11.85 199.193,11.665 198.6,11.665C197.948,11.665 197.441,11.879 197.078,12.309C196.715,12.739 196.533,13.361 196.533,14.176L196.533,20.42L193.667,20.42L193.667,13.776C193.667,13.109 193.504,12.591 193.178,12.22C192.852,11.85 192.393,11.665 191.8,11.665C191.163,11.665 190.656,11.879 190.278,12.309C189.9,12.739 189.711,13.361 189.711,14.176L189.711,20.42L186.845,20.42L186.845,9.309L189.711,9.309L189.711,10.487C190.378,9.494 191.407,8.998 192.8,8.998C194.163,8.998 195.17,9.531 195.822,10.598C196.563,9.531 197.667,8.998 199.133,8.998Z" style="fill:rgb(15,23,42);fill-rule:nonzero;"/>
        <path d="M214.222,9.309L217.089,9.309L217.089,20.42L214.222,20.42L214.222,19.109C213.363,20.191 212.156,20.731 210.6,20.731C209.119,20.731 207.848,20.165 206.789,19.031C205.73,17.898 205.2,16.509 205.2,14.865C205.2,13.22 205.73,11.831 206.789,10.698C207.848,9.565 209.119,8.998 210.6,8.998C212.156,8.998 213.363,9.539 214.222,10.62L214.222,9.309ZM208.933,17.12C209.511,17.705 210.245,17.998 211.133,17.998C212.022,17.998 212.759,17.705 213.345,17.12C213.93,16.535 214.222,15.783 214.222,14.865C214.222,13.946 213.93,13.194 213.345,12.609C212.759,12.024 212.022,11.731 211.133,11.731C210.245,11.731 209.511,12.024 208.933,12.609C208.356,13.194 208.067,13.946 208.067,14.865C208.067,15.783 208.356,16.535 208.933,17.12Z" style="fill:rgb(15,23,42);fill-rule:nonzero;"/>
        <path d="M226.045,12.065L223.533,12.065L223.533,16.687C223.533,17.072 223.63,17.353 223.822,17.531C224.015,17.709 224.296,17.809 224.667,17.831C225.037,17.853 225.496,17.85 226.045,17.82L226.045,20.42C224.074,20.642 222.685,20.457 221.878,19.865C221.07,19.272 220.667,18.213 220.667,16.687L220.667,12.065L218.733,12.065L218.733,9.309L220.667,9.309L220.667,7.065L223.533,6.198L223.533,9.309L226.045,9.309L226.045,12.065Z" style="fill:rgb(15,23,42);fill-rule:nonzero;"/>
    </g>
    <g id="Group-1.svg" serif:id="Group 1.svg" transform="matrix(0.846561,0,0,0.846561,17.8691,20)">
        <g transform="matrix(1,0,0,1,-20,-20)">
            <path d="M25.093,1.054L21.16,0L17.845,12.37L14.853,1.202L10.92,2.256L14.153,14.322L6.1,6.269L3.221,9.148L12.054,17.981L1.054,15.034L0,18.967L12.019,22.187C11.881,21.594 11.808,20.975 11.808,20.34C11.808,15.842 15.454,12.196 19.952,12.196C24.449,12.196 28.095,15.842 28.095,20.34C28.095,20.971 28.023,21.586 27.888,22.176L38.81,25.102L39.864,21.169L27.798,17.936L38.798,14.989L37.744,11.056L25.678,14.289L33.731,6.236L30.852,3.357L22.142,12.067L25.093,1.054Z" style="fill:rgb(14,165,233);fill-rule:nonzero;"/>
            <path d="M27.877,22.221C27.54,23.647 26.828,24.928 25.851,25.954L33.764,33.867L36.643,30.988L27.877,22.221Z" style="fill:rgb(14,165,233);fill-rule:nonzero;"/>
            <path d="M25.771,26.037C24.782,27.046 23.533,27.8 22.132,28.188L25.012,38.934L28.945,37.88L25.771,26.037Z" style="fill:rgb(14,165,233);fill-rule:nonzero;"/>
            <path d="M21.985,28.227C21.335,28.395 20.654,28.483 19.952,28.483C19.2,28.483 18.471,28.381 17.78,28.19L14.898,38.946L18.831,40L21.985,28.227Z" style="fill:rgb(14,165,233);fill-rule:nonzero;"/>
            <path d="M17.641,28.151C16.261,27.743 15.034,26.98 14.066,25.967L6.133,33.9L9.012,36.779L17.641,28.151Z" style="fill:rgb(14,165,233);fill-rule:nonzero;"/>
            <path d="M13.999,25.897C13.048,24.878 12.354,23.615 12.024,22.211L1.066,25.147L2.12,29.08L13.999,25.897Z" style="fill:rgb(14,165,233);fill-rule:nonzero;"/>
        </g>
    </g>
</svg>
