<svg width="165" height="42" viewBox="0 0 165 42" fill="none" xmlns="http://www.w3.org/2000/svg">
    <path
        d="M10 14.5714H15.7953V10.2857C15.7953 9.08123 16.1926 8.07283 16.9873 7.26051C17.7819 6.42017 18.7683 6 19.9466 6H28.2491V11.042H22.0838C21.344 11.042 20.9741 11.4622 20.9741 12.3025V14.5714H28.9889V19.6134H20.9741V35.4118H15.7953V19.6134H10V14.5714Z"
        fill="#0EA5E9" />
    <path
        d="M39.8933 26.7143C39.9207 27.3305 40.0577 27.9048 40.3043 28.437C40.5783 28.9412 40.9345 29.3894 41.373 29.7815C41.8388 30.1457 42.3594 30.4398 42.9348 30.6639C43.5376 30.8599 44.1679 30.958 44.8255 30.958C46.1133 30.958 47.0998 30.7339 47.7848 30.2857C48.4698 29.8095 48.963 29.2493 49.2644 28.605L53.7034 31.1261C53.4568 31.6583 53.1143 32.2185 52.6759 32.8067C52.2374 33.3669 51.662 33.8852 50.9496 34.3613C50.2646 34.8375 49.4151 35.2297 48.4013 35.5378C47.4149 35.8459 46.2503 36 44.9077 36C43.3732 36 41.9758 35.7479 40.7153 35.2437C39.4549 34.7395 38.3588 34.0112 37.4272 33.0588C36.523 32.1064 35.8106 30.944 35.2899 29.5714C34.7967 28.1989 34.5501 26.6443 34.5501 24.9076V24.6555C34.5501 23.0588 34.8104 21.6022 35.331 20.2857C35.8791 18.9692 36.6189 17.8487 37.5505 16.9244C38.4821 16 39.5645 15.2857 40.7975 14.7815C42.058 14.2493 43.4006 13.9832 44.8255 13.9832C46.5791 13.9832 48.0862 14.3053 49.3466 14.9496C50.6071 15.5658 51.6483 16.3641 52.4704 17.3445C53.2924 18.2969 53.8952 19.3613 54.2788 20.5378C54.6624 21.6863 54.8542 22.8067 54.8542 23.8992V26.7143H39.8933ZM44.7844 18.7731C43.4691 18.7731 42.4005 19.1232 41.5785 19.8235C40.7564 20.4958 40.2221 21.2801 39.9755 22.1765H49.5932C49.4288 21.1961 48.9082 20.3838 48.0314 19.7395C47.182 19.0952 46.0996 18.7731 44.7844 18.7731Z"
        fill="black" />
    <path
        d="M59.5112 14.5714H68.1425V17.5966H68.8824C69.266 16.4482 69.9099 15.5658 70.8141 14.9496C71.7458 14.3053 72.8555 13.9832 74.1434 13.9832C76.171 13.9832 77.8014 14.6415 79.0344 15.958C80.2675 17.2465 80.884 19.2213 80.884 21.8824V22.8067L75.5408 23.3109V22.7227C75.5408 21.5742 75.2531 20.6639 74.6777 19.9916C74.1023 19.2913 73.2391 18.9412 72.0883 18.9412C70.9374 18.9412 70.0332 19.3473 69.3756 20.1597C68.718 20.972 68.3891 22.1345 68.3891 23.6471V30.3697H73.0747V35.4118H59.018V30.3697H63.2104V19.6134H59.5112V14.5714Z"
        fill="black" />
    <path
        d="M106.133 35.4118H100.954V20.7899C100.954 20.2017 100.803 19.7675 100.502 19.4874C100.228 19.1793 99.858 19.0252 99.3922 19.0252C98.8442 19.0252 98.4057 19.1933 98.0769 19.5294C97.7755 19.8655 97.6248 20.3697 97.6248 21.042V35.4118H92.446V20.7899C92.446 20.2017 92.2816 19.7675 91.9528 19.4874C91.6514 19.1793 91.2815 19.0252 90.8431 19.0252C90.3499 19.0252 89.9388 19.1933 89.61 19.5294C89.2812 19.8655 89.1168 20.3697 89.1168 21.042V35.4118H83.938V14.5714H89.1168V16.5882H89.8566C90.021 15.8319 90.391 15.2157 90.9664 14.7395C91.5692 14.2353 92.3501 13.9832 93.3092 13.9832C94.2134 13.9832 94.9806 14.2353 95.6108 14.7395C96.2411 15.2157 96.6658 15.8319 96.885 16.5882H97.6248C97.844 15.8319 98.2961 15.2157 98.9812 14.7395C99.6936 14.2353 100.57 13.9832 101.612 13.9832C102.982 13.9832 104.078 14.4594 104.9 15.4118C105.722 16.3361 106.133 17.6247 106.133 19.2773V35.4118Z"
        fill="black" />
    <path
        d="M124.024 32.3866C123.476 33.7031 122.709 34.6415 121.723 35.2017C120.736 35.7339 119.586 36 118.27 36C117.037 36 115.873 35.7619 114.777 35.2857C113.708 34.8095 112.763 34.1092 111.941 33.1849C111.119 32.2605 110.461 31.1401 109.968 29.8235C109.502 28.507 109.269 27.0084 109.269 25.3277V24.6555C109.269 23.0028 109.502 21.5182 109.968 20.2017C110.434 18.8852 111.064 17.7647 111.858 16.8403C112.653 15.916 113.571 15.2157 114.612 14.7395C115.681 14.2353 116.818 13.9832 118.024 13.9832C119.476 13.9832 120.64 14.2353 121.517 14.7395C122.422 15.2437 123.134 16.028 123.655 17.0924H124.394V14.5714H129.573V29.1092C129.573 29.9496 129.943 30.3697 130.683 30.3697H131.464V35.4118H127.929C126.997 35.4118 126.23 35.1317 125.627 34.5714C125.052 34.0112 124.764 33.2829 124.764 32.3866H124.024ZM119.421 30.958C120.928 30.958 122.134 30.4538 123.038 29.4454C123.942 28.409 124.394 27.0084 124.394 25.2437V24.7395C124.394 22.9748 123.942 21.5882 123.038 20.5798C122.134 19.5434 120.928 19.0252 119.421 19.0252C117.914 19.0252 116.708 19.5434 115.804 20.5798C114.9 21.5882 114.448 22.9748 114.448 24.7395V25.2437C114.448 27.0084 114.9 28.409 115.804 29.4454C116.708 30.4538 117.914 30.958 119.421 30.958Z"
        fill="black" />
    <path
        d="M135.422 14.5714H141.464V6H146.643V14.5714H154V19.6134H146.643V29.1092C146.643 29.9496 147.013 30.3697 147.753 30.3697H153.26V35.4118H144.629C143.697 35.4118 142.93 35.1036 142.327 34.4874C141.752 33.8711 141.464 33.0868 141.464 32.1345V19.6134H135.422V14.5714Z"
        fill="black" />
</svg>