<?xml version="1.0" encoding="UTF-8" standalone="no"?>
<!DOCTYPE svg PUBLIC "-//W3C//DTD SVG 1.1//EN" "http://www.w3.org/Graphics/SVG/1.1/DTD/svg11.dtd">
<svg width="100%" height="100%" viewBox="0 0 172 36" version="1.1" xmlns="http://www.w3.org/2000/svg" xmlns:xlink="http://www.w3.org/1999/xlink" xml:space="preserve" xmlns:serif="http://www.serif.com/" style="fill-rule:evenodd;clip-rule:evenodd;stroke-linejoin:round;stroke-miterlimit:2;">
    <g transform="matrix(1,0,0,1,-12.2475,10.5073)">
        <path d="M45.274,5.225L45.274,8.213C45.274,11.813 44.116,14.789 41.8,17.141C39.484,19.493 36.442,20.669 32.674,20.669C28.738,20.669 25.522,19.415 23.026,16.907C20.53,14.399 19.282,11.273 19.282,7.529C19.282,3.785 20.53,0.647 23.026,-1.885C25.522,-4.417 28.642,-5.683 32.386,-5.683C34.738,-5.683 36.892,-5.155 38.848,-4.099C40.804,-3.043 42.346,-1.615 43.474,0.185L37.354,3.677C36.346,2.141 34.738,1.373 32.53,1.373C30.73,1.373 29.272,1.949 28.156,3.101C27.04,4.253 26.482,5.741 26.482,7.565C26.482,9.293 26.998,10.799 28.03,12.083C29.062,13.367 30.658,14.009 32.818,14.009C35.314,14.009 36.982,13.121 37.822,11.345L32.458,11.345L32.458,5.225L45.274,5.225Z" style="fill-rule:nonzero;"/>
        <path d="M62.014,20.093L61.15,16.853L53.878,16.853L53.014,20.093L45.274,20.093L53.302,-5.107L61.726,-5.107L69.754,20.093L62.014,20.093ZM55.426,11.093L59.602,11.093L57.514,3.353L55.426,11.093Z" style="fill-rule:nonzero;"/>
        <path d="M84.55,20.057L80.554,12.137L78.754,12.137L78.754,20.057L71.554,20.057L71.554,-5.143L81.634,-5.143C84.394,-5.143 86.674,-4.333 88.474,-2.713C90.274,-1.093 91.174,1.049 91.174,3.713C91.174,5.201 90.832,6.545 90.148,7.745C89.464,8.945 88.51,9.917 87.286,10.661L92.254,20.057L84.55,20.057ZM78.754,1.481L78.754,6.161L81.49,6.161C82.258,6.185 82.864,5.993 83.308,5.585C83.752,5.177 83.974,4.601 83.974,3.857C83.974,3.113 83.752,2.531 83.308,2.111C82.864,1.691 82.258,1.481 81.49,1.481L78.754,1.481Z" style="fill-rule:nonzero;"/>
        <path d="M110.614,7.097C112.774,8.321 113.854,10.181 113.854,12.677C113.854,14.981 113.104,16.793 111.604,18.113C110.104,19.433 107.926,20.093 105.07,20.093L94.414,20.093L94.414,-5.107L104.422,-5.107C107.254,-5.107 109.414,-4.495 110.902,-3.271C112.39,-2.047 113.134,-0.295 113.134,1.985C113.134,4.169 112.294,5.873 110.614,7.097ZM103.99,1.085L101.614,1.085L101.614,4.469L104.386,4.433C105.418,4.289 105.934,3.737 105.934,2.777C105.934,2.225 105.742,1.805 105.358,1.517C104.974,1.229 104.518,1.085 103.99,1.085ZM104.638,13.901C105.214,13.901 105.694,13.733 106.078,13.397C106.462,13.061 106.654,12.629 106.654,12.101C106.654,11.093 106.114,10.505 105.034,10.337L101.614,10.301L101.614,13.901L104.638,13.901Z" style="fill-rule:nonzero;"/>
        <path d="M131.134,20.093L130.27,16.853L122.998,16.853L122.134,20.093L114.394,20.093L122.422,-5.107L130.846,-5.107L138.874,20.093L131.134,20.093ZM124.546,11.093L128.722,11.093L126.634,3.353L124.546,11.093Z" style="fill-rule:nonzero;"/>
        <path d="M149.386,13.109L157.774,13.109L157.774,20.093L139.954,20.093L139.954,14.549L147.982,1.877L140.134,1.877L140.134,-5.107L157.414,-5.107L157.414,0.437L149.386,13.109Z" style="fill-rule:nonzero;"/>
        <path d="M167.854,13.469L177.214,13.469L177.214,20.093L160.654,20.093L160.654,-5.107L177.034,-5.107L177.034,1.445L167.854,1.445L167.854,4.181L176.134,4.181L176.134,10.661L167.854,10.661L167.854,13.469Z" style="fill-rule:nonzero;"/>
    </g>
</svg>
